<svg xmlns="http://www.w3.org/2000/svg" width="75" height="75" viewBox="0 0 75 75">
  <g id="Icon-Cost" transform="translate(-766 -5028)">
    <path id="Path_66603" data-name="Path 66603" d="M37.5,0A37.5,37.5,0,1,1,0,37.5,37.5,37.5,0,0,1,37.5,0Z" transform="translate(766 5028)" fill="#24b34b"/>
    <g id="Group_108280" data-name="Group 108280" transform="translate(774.081 5038.33)">
      <g id="Group_108277" data-name="Group 108277" transform="matrix(0.996, 0.087, -0.087, 0.996, 3.884, 0)">
        <g id="Group_108279" data-name="Group 108279" transform="translate(0 0)">
          <path id="Path_66579" data-name="Path 66579" d="M38.58,13.432,35.552,6.22a18.434,18.434,0,0,1-3.944,4.139,4.173,4.173,0,1,1-1.236-3.12,18.95,18.95,0,0,0,3.693-4.56L33.587,1.54A2.511,2.511,0,0,0,30.9.028L19.314,1.759a2.511,2.511,0,0,0-1.777,1.183L0,31.891,20.927,44.568,38.412,15.705a2.512,2.512,0,0,0,.168-2.273" fill="#fff"/>
          <path id="Path_66580" data-name="Path 66580" d="M7.844,12.824a3.523,3.523,0,0,1-1.576.546,4.8,4.8,0,0,1-1.792-.181,6.842,6.842,0,0,1-.74-.258l-.579.957L1.9,13.127l.532-.879A7.807,7.807,0,0,1,.779,10.841a5.6,5.6,0,0,1-.518-.677A1.943,1.943,0,0,1,.02,9.67a.925.925,0,0,1,.034-.49,3.634,3.634,0,0,1,.388-.793,5.58,5.58,0,0,1,.341-.512,1.572,1.572,0,0,1,.26-.276.346.346,0,0,1,.209-.09.389.389,0,0,1,.194.063.988.988,0,0,1,.282.364q.158.289.417.678a7.515,7.515,0,0,0,.651.827,4.369,4.369,0,0,0,1,.809,3.138,3.138,0,0,0,.732.335,2.017,2.017,0,0,0,.657.089,1.118,1.118,0,0,0,.56-.171,1.341,1.341,0,0,0,.429-.452,1.01,1.01,0,0,0,.144-.709,2.184,2.184,0,0,0-.3-.76,7.587,7.587,0,0,0-.575-.812q-.34-.423-.681-.892a9.461,9.461,0,0,1-.627-.982A3.978,3.978,0,0,1,3.728,4.81,3.242,3.242,0,0,1,3.7,3.6a3.751,3.751,0,0,1,.531-1.349A3.63,3.63,0,0,1,5.321,1.1,3.379,3.379,0,0,1,6.762.555a4.516,4.516,0,0,1,1.7.117,5.853,5.853,0,0,1,.817.271L9.851,0l1.256.761-.53.875A7.049,7.049,0,0,1,11.2,2.1a7.918,7.918,0,0,1,.706.659,4.52,4.52,0,0,1,.477.591,2.355,2.355,0,0,1,.233.42.655.655,0,0,1,.05.262.853.853,0,0,1-.055.245c-.033.088-.079.195-.139.318s-.142.272-.247.446q-.185.306-.318.487a1.527,1.527,0,0,1-.242.271.319.319,0,0,1-.2.088.36.36,0,0,1-.182-.056.9.9,0,0,1-.245-.311,6.631,6.631,0,0,0-.383-.58,7.409,7.409,0,0,0-.593-.707,4.206,4.206,0,0,0-.9-.7A2.918,2.918,0,0,0,8.453,3.2a1.479,1.479,0,0,0-.6-.054,1.111,1.111,0,0,0-.48.18,1.17,1.17,0,0,0-.348.369.987.987,0,0,0-.141.719,2.3,2.3,0,0,0,.312.761A7.513,7.513,0,0,0,7.786,6q.351.429.7.893a9.786,9.786,0,0,1,.641.984,4.011,4.011,0,0,1,.427,1.094,3.306,3.306,0,0,1,.042,1.208A3.545,3.545,0,0,1,9.085,11.5a3.969,3.969,0,0,1-1.241,1.321" transform="translate(11.551 19.072)" fill="#24b34b"/>
        </g>
      </g>
      <g id="Group_108276" data-name="Group 108276" transform="matrix(0.629, -0.777, 0.777, 0.629, 31.628, 38.922)">
        <line id="Line_1650" data-name="Line 1650" y2="11.237" transform="translate(6.555 0)" fill="none" stroke="#dee21e" stroke-linecap="square" stroke-width="5"/>
        <path id="Path_66576" data-name="Path 66576" d="M12.936,0,6.468,6.3,0,0Z" transform="translate(0 11.236)" fill="#dee21e" stroke="#dee21e" stroke-linecap="round" stroke-linejoin="round" stroke-width="4"/>
      </g>
    </g>
  </g>
</svg>
