<svg xmlns="http://www.w3.org/2000/svg" width="75" height="75" viewBox="0 0 75 75">
  <g id="Icon-Carbon" transform="translate(-373 -5028)">
    <path id="Path_66604" data-name="Path 66604" d="M37.5,0A37.5,37.5,0,1,1,0,37.5,37.5,37.5,0,0,1,37.5,0Z" transform="translate(373 5028)" fill="#24b34b"/>
    <g id="Group_108272" data-name="Group 108272" transform="translate(384.514 5042.359)">
      <g id="Group_108268" data-name="Group 108268" transform="translate(0 0)">
        <g id="Group_108270" data-name="Group 108270" transform="translate(0 0)">
          <path id="Path_66572" data-name="Path 66572" d="M31.093,0a.875.875,0,0,0-.158.018,12.247,12.247,0,0,0-8.292,3.509,10,10,0,0,0-15.231,7.8A10.58,10.58,0,0,0,10.7,32H40.16a10.575,10.575,0,0,0,3.214-20.689A12.2,12.2,0,0,0,31.2,0h-.1Z" transform="translate(0 0.004)" fill="#fff"/>
          <path id="Path_66573" data-name="Path 66573" d="M426.665,404.246l-.008.011a6.292,6.292,0,0,0-3.321.916,6.48,6.48,0,0,0-2.352,2.454,6.845,6.845,0,0,0-.863,3.4,6.962,6.962,0,0,0,.863,3.429,6.48,6.48,0,0,0,2.352,2.455,6.377,6.377,0,0,0,3.319.9,6.458,6.458,0,0,0,4.15-1.473l.011-.011.011-.011a1.05,1.05,0,0,0,.32-.747.988.988,0,0,0-.267-.706.857.857,0,0,0-.651-.3,1.147,1.147,0,0,0-.655.235,4.765,4.765,0,0,1-2.905,1.047,4.194,4.194,0,0,1-2.26-.645,4.767,4.767,0,0,1-1.641-1.75,5.2,5.2,0,0,1,0-4.858,4.743,4.743,0,0,1,1.641-1.767,4.193,4.193,0,0,1,2.26-.643,4.266,4.266,0,0,1,1.586.246,4.425,4.425,0,0,1,1.257.788,1.108,1.108,0,0,0,.7.259.986.986,0,0,0,.671-.265.906.906,0,0,0,.312-.688,1.062,1.062,0,0,0-.079-.435.936.936,0,0,0-.32-.39,6.625,6.625,0,0,0-1.91-1.116,6.5,6.5,0,0,0-2.218-.341Z" transform="translate(-409.781 -394.369)" fill="#24b34b" stroke="#24b34b" stroke-width="0.5"/>
          <path id="Path_66574" data-name="Path 66574" d="M794.751,404.474v0a7.044,7.044,0,0,0-3.5.863,6.1,6.1,0,0,0-2.375,2.408,7.153,7.153,0,0,0-.845,3.5,7.237,7.237,0,0,0,.845,3.51,6.1,6.1,0,0,0,2.375,2.409,7.04,7.04,0,0,0,3.5.863,6.945,6.945,0,0,0,3.481-.863,6.1,6.1,0,0,0,2.375-2.409,7.13,7.13,0,0,0,.863-3.511,7.041,7.041,0,0,0-.863-3.5,6.07,6.07,0,0,0-2.392-2.407,6.915,6.915,0,0,0-3.464-.865Zm0,1.942h0a4.6,4.6,0,0,1,2.411.628,4.4,4.4,0,0,1,1.669,1.732,5.381,5.381,0,0,1,0,4.939,4.52,4.52,0,0,1-1.671,1.748,4.93,4.93,0,0,1-4.825,0,4.52,4.52,0,0,1-1.671-1.748,5.384,5.384,0,0,1,0-4.939,4.436,4.436,0,0,1,1.655-1.732,4.7,4.7,0,0,1,2.43-.628Z" transform="translate(-765.562 -394.591)" fill="#24b34b" stroke="#24b34b" stroke-width="0.5"/>
          <path id="Path_66575" data-name="Path 66575" d="M1242.481,592.917l.017.008a3.07,3.07,0,0,0-1.549.4,2.95,2.95,0,0,0-1.079,1.091,3.068,3.068,0,0,0-.4,1.547.9.9,0,0,0,.9.887.9.9,0,0,0,.9-.887,1.434,1.434,0,0,1,.159-.667,1.245,1.245,0,0,1,.451-.479,1.082,1.082,0,0,1,.612-.179.954.954,0,0,1,.806.336,1.43,1.43,0,0,1,.312.99,2.142,2.142,0,0,1-.646,1.23l-3.267,3.817.017-.016a.9.9,0,0,0-.253.634.867.867,0,0,0,.891.892h4.254a.921.921,0,0,0,.647-.263.892.892,0,0,0,0-1.269.923.923,0,0,0-.647-.265h-2.524l2.173-2.468a5.663,5.663,0,0,0,.766-1.092,2.541,2.541,0,0,0,.336-1.206,3.35,3.35,0,0,0-.359-1.581,2.532,2.532,0,0,0-1.018-1.081,2.952,2.952,0,0,0-1.5-.376Z" transform="translate(-1202.104 -576.82)" fill="#24b34b" stroke="#24b34b" stroke-width="0.5"/>
        </g>
      </g>
      <g id="Group_108271" data-name="Group 108271" transform="translate(19.838 25.442)">
        <rect id="Rectangle_14789" data-name="Rectangle 14789" width="12" height="21" rx="6" transform="translate(0.648 0.199)" fill="#24b34b"/>
        <line id="Line_1650" data-name="Line 1650" y2="11.237" transform="translate(6.555 6.086)" fill="none" stroke="#dee21e" stroke-linecap="round" stroke-width="5"/>
        <path id="Path_66576" data-name="Path 66576" d="M-6404.225,5884.319l-6.468,6.3-6.468-6.3Z" transform="translate(6417.161 -5866.997)" fill="#fdd700" stroke="#dee21e" stroke-linecap="round" stroke-linejoin="round" stroke-width="4"/>
      </g>
    </g>
  </g>
</svg>
