<svg xmlns="http://www.w3.org/2000/svg" width="75" height="75" viewBox="0 0 75 75">
  <g id="Icon-Control" transform="translate(-1159 -5028)">
    <path id="Path_66605" data-name="Path 66605" d="M37.5,0A37.5,37.5,0,1,1,0,37.5,37.5,37.5,0,0,1,37.5,0Z" transform="translate(1159 5028)" fill="#24b34b"/>
    <g id="Group_108266" data-name="Group 108266" transform="translate(1171.51 5036.688)">
      <g id="Group_108267" data-name="Group 108267" transform="translate(1 3.655)">
        <path id="Path_66569" data-name="Path 66569" d="M128.2,15.478,139.83.343a.863.863,0,0,1,1.523.733l-2.336,9.44a.427.427,0,0,0,.415.53h7.74a.427.427,0,0,1,.344.681L134.324,29.606a.863.863,0,0,1-1.519-.77l3.784-12.115a.427.427,0,0,0-.408-.555h-7.638a.427.427,0,0,1-.339-.688" transform="translate(-111.55 -0.001)" fill="#dee21e"/>
        <path id="Path_66570" data-name="Path 66570" d="M39.218,177.673H34.53l-2.222,3.011h6.909a.932.932,0,0,1,.929.931v14.446a.931.931,0,0,1-.929.931H9.043a.932.932,0,0,1-.932-.931V181.615a.932.932,0,0,1,.932-.931H21.565l.94-3.011H9.043A3.948,3.948,0,0,0,5.1,181.615v1.7H2.595A1.6,1.6,0,0,0,1,184.9v7.866a1.6,1.6,0,0,0,1.595,1.595H5.1v1.7A3.948,3.948,0,0,0,9.043,200H39.218a3.945,3.945,0,0,0,3.94-3.942V181.615a3.945,3.945,0,0,0-3.94-3.942" transform="translate(-1 -157.979)" fill="#fff"/>
        <path id="Path_66571" data-name="Path 66571" d="M75.9,216.439v9.683a1.5,1.5,0,0,0,1.505,1.506h25.414a1.5,1.5,0,0,0,1.505-1.506v-9.683a1.5,1.5,0,0,0-1.505-1.505H96.958l-5.326,7.219a3.343,3.343,0,0,1-2.709,1.382,3.44,3.44,0,0,1-2.762-1.4,3.342,3.342,0,0,1-.489-3.007l1.311-4.2H77.4a1.5,1.5,0,0,0-1.505,1.505" transform="translate(-66.982 -190.422)" fill="#fff"/>
      </g>
    </g>
  </g>
</svg>
