<svg xmlns="http://www.w3.org/2000/svg" width="357.363" height="511.817" viewBox="0 0 357.363 511.817">
  <path id="Accent-ArrowDown" d="M345.257,15.423C229.776-.891,121.794,74.476,95.9,187.732c-18.842,82.422-4,179.8,4.316,267.235l59.3-56.469c6.337-6.034,36.994,6.675,31.938,11.491l-88.063,83.859c.035.542.084,1.106.12,1.655.12,1.929-1.732,2.668-4.626,2.633q-6.274,5.978-12.54,11.941c-5.344,5.091-30.389-1.95-32.678-8.752Q36.111,449.088,18.544,396.843A440.032,440.032,0,0,1,.075,341.916c-1.838-6.963,30.678-2.112,33.41,6.02q9.231,27.45,18.455,54.906c3.908,9.505,8.2,18.821,12.772,27.988C53,318.85,33.914,189.26,98.235,97.691,154.028,18.268,246.006-10.044,338.913,3.08,352.523,5,369.2,18.8,345.257,15.423" fill="#fff" opacity="0.08"/>
</svg>
