<svg xmlns="http://www.w3.org/2000/svg" width="280.901" height="280.901" viewBox="0 0 280.901 280.901">
  <g id="Accent_Image" data-name="Accent Image" transform="translate(-312 -1162)">
    <circle id="Ellipse_349" data-name="Ellipse 349" cx="35.5" cy="35.5" r="35.5" transform="translate(416.951 1266.951)" fill="#fff"/>
    <path id="Ellipse_349_-_Outline" data-name="Ellipse 349 - Outline" d="M35.212,7.913c-7.632,0,4.363,4.583,13.423,13.533C57.088,29.8,62.51,42.633,62.51,35.212a27.33,27.33,0,0,0-27.3-27.3m0-7.913A35.212,35.212,0,1,1,0,35.212,35.212,35.212,0,0,1,35.212,0Z" transform="translate(417.239 1267.239)" fill="#fdd700"/>
    <path id="Ellipse_350" data-name="Ellipse 350" d="M52.62,7.913A44.707,44.707,0,1,0,97.326,52.62,44.757,44.757,0,0,0,52.62,7.913M52.62,0A52.62,52.62,0,1,1,0,52.62,52.62,52.62,0,0,1,52.62,0Z" transform="translate(399.831 1249.831)" fill="#dee21e"/>
    <path id="Ellipse_351" data-name="Ellipse 351" d="M87.435,7.913a79.523,79.523,0,1,0,79.523,79.523A79.613,79.613,0,0,0,87.435,7.913m0-7.913A87.435,87.435,0,1,1,0,87.435,87.435,87.435,0,0,1,87.435,0Z" transform="translate(365.015 1215.015)" fill="#24b34b"/>
    <path id="Ellipse_352" data-name="Ellipse 352" d="M104.052,7.913a96.139,96.139,0,1,0,96.139,96.139A96.248,96.248,0,0,0,104.052,7.913m0-7.913A104.052,104.052,0,1,1,0,104.052,104.052,104.052,0,0,1,104.052,0Z" transform="translate(348.398 1198.398)" fill="#02aea8"/>
    <path id="Ellipse_353" data-name="Ellipse 353" d="M122.251,7.913A114.339,114.339,0,1,0,236.59,122.251,114.468,114.468,0,0,0,122.251,7.913m0-7.913A122.251,122.251,0,1,1,0,122.251,122.251,122.251,0,0,1,122.251,0Z" transform="translate(330.199 1180.199)" fill="#046388"/>
    <path id="Ellipse_354" data-name="Ellipse 354" d="M140.451,7.913C67.369,7.913,7.913,67.369,7.913,140.451S67.369,272.989,140.451,272.989s132.538-59.456,132.538-132.538S213.532,7.913,140.451,7.913m0-7.913A140.451,140.451,0,1,1,0,140.451,140.451,140.451,0,0,1,140.451,0Z" transform="translate(312 1162)" fill="#150e40"/>
    <path id="Ellipse_355" data-name="Ellipse 355" d="M69.509,8.036a61.473,61.473,0,1,0,61.473,61.473A61.543,61.543,0,0,0,69.509,8.036m0-8.036A69.509,69.509,0,1,1,0,69.509,69.509,69.509,0,0,1,69.509,0Z" transform="translate(382.942 1232.942)" fill="#bad532"/>
  </g>
</svg>
