<svg id="Amazon_logo" xmlns="http://www.w3.org/2000/svg" width="122.135" height="36.806" viewBox="0 0 122.135 36.806">
  <path id="path8" d="M143.687,121.345c-7.1,5.231-17.385,8.023-26.242,8.023a47.487,47.487,0,0,1-32.058-12.233c-.665-.6-.069-1.419.728-.952a64.523,64.523,0,0,0,32.074,8.506,63.78,63.78,0,0,0,24.466-5c1.2-.51,2.206.787,1.031,1.659" transform="translate(-67.916 -92.562)" fill="#f90"/>
  <path id="path10" d="M353.676,112.951c-.9-1.159-6-.548-8.283-.276-.7.085-.8-.521-.175-.957,4.056-2.855,10.713-2.031,11.489-1.074s-.2,7.634-4.014,10.819c-.585.489-1.143.229-.883-.42.856-2.137,2.775-6.927,1.866-8.092" transform="translate(-274.954 -87.543)" fill="#f90"/>
  <path id="path12" d="M345.718,6.4V3.622a.685.685,0,0,1,.7-.7h12.425a.692.692,0,0,1,.718.7V6a3.91,3.91,0,0,1-.936,1.744l-6.438,9.192a13.718,13.718,0,0,1,7.087,1.521,1.264,1.264,0,0,1,.659,1.079V22.5c0,.4-.447.877-.914.633a14.313,14.313,0,0,0-13.126.021c-.431.234-.883-.234-.883-.638V19.7a3.356,3.356,0,0,1,.457-1.909l7.459-10.7h-6.491a.687.687,0,0,1-.718-.7" transform="translate(-275.12 -2.378)" fill="#221f1f"/>
  <path id="path14" d="M107.484,22.313H103.7a.714.714,0,0,1-.675-.643V2.269a.71.71,0,0,1,.728-.7h3.525a.712.712,0,0,1,.686.649V4.758h.069a4.99,4.99,0,0,1,4.976-3.594c2.366,0,3.844,1.143,4.907,3.594a5.582,5.582,0,0,1,9.6-1.473c1.2,1.632.952,4,.952,6.082l-.005,12.244a.714.714,0,0,1-.728.7H123.96a.719.719,0,0,1-.681-.7V11.329a24.284,24.284,0,0,0-.106-3.636,1.968,1.968,0,0,0-2.222-1.669,2.511,2.511,0,0,0-2.259,1.59,11.744,11.744,0,0,0-.351,3.716V21.611a.714.714,0,0,1-.728.7h-3.775a.715.715,0,0,1-.681-.7l-.005-10.282c0-2.164.356-5.348-2.329-5.348-2.717,0-2.61,3.1-2.61,5.348V21.611a.714.714,0,0,1-.728.7" transform="translate(-82.21 -0.978)" fill="#221f1f"/>
  <path id="path16" d="M436.074,1.164c5.609,0,8.645,4.817,8.645,10.941,0,5.917-3.355,10.612-8.645,10.612-5.508,0-8.506-4.817-8.506-10.819,0-6.04,3.036-10.734,8.506-10.734m.032,3.961c-2.786,0-2.961,3.8-2.961,6.162s-.037,7.432,2.929,7.432c2.929,0,3.068-4.083,3.068-6.571A17.936,17.936,0,0,0,438.578,7a2.365,2.365,0,0,0-2.472-1.877" transform="translate(-340.935 -0.978)" fill="#221f1f"/>
  <path id="path18" d="M530.514,22.313H526.75a.719.719,0,0,1-.68-.7l-.005-19.405a.715.715,0,0,1,.728-.633h3.5a.723.723,0,0,1,.675.542V5.082h.069c1.058-2.653,2.541-3.918,5.152-3.918A4.96,4.96,0,0,1,540.6,3.45c.989,1.552.989,4.163.989,6.04V21.7a.726.726,0,0,1-.728.611h-3.791a.716.716,0,0,1-.67-.611V11.164c0-2.121.245-5.226-2.366-5.226a2.47,2.47,0,0,0-2.185,1.552,8.586,8.586,0,0,0-.6,3.674V21.611a.727.727,0,0,1-.739.7" transform="translate(-419.458 -0.978)" fill="#221f1f"/>
  <path id="use28" d="M11.5,12.314V11.5c-2.733,0-5.62.585-5.62,3.807,0,1.632.845,2.738,2.3,2.738a3.065,3.065,0,0,0,2.616-1.717,7.394,7.394,0,0,0,.707-4.009m3.812,9.213a.789.789,0,0,1-.893.09,9.307,9.307,0,0,1-2.169-2.52c-2.073,2.116-3.541,2.749-6.231,2.749-3.179,0-5.657-1.962-5.657-5.891a6.423,6.423,0,0,1,4.03-6.178c2.052-.9,4.918-1.063,7.108-1.313V7.976a4.864,4.864,0,0,0-.457-2.738,2.529,2.529,0,0,0-2.121-.984,2.881,2.881,0,0,0-3.041,2.27.791.791,0,0,1-.654.691L1.56,6.823A.669.669,0,0,1,1,6.03C1.842,1.586,5.856.246,9.45.246a8.57,8.57,0,0,1,5.694,1.882c1.84,1.717,1.664,4.009,1.664,6.5v5.891a5.17,5.17,0,0,0,1.425,3.5.71.71,0,0,1-.011,1c-.771.643-2.143,1.84-2.9,2.509l-.011-.011" transform="translate(49.191 -0.246)" fill="#221f1f"/>
  <path id="path30" d="M11.5,12.314V11.5c-2.733,0-5.62.585-5.62,3.807,0,1.632.845,2.738,2.3,2.738a3.065,3.065,0,0,0,2.616-1.717,7.394,7.394,0,0,0,.707-4.009m3.812,9.213a.789.789,0,0,1-.893.09,9.307,9.307,0,0,1-2.169-2.52c-2.073,2.116-3.541,2.749-6.231,2.749-3.179,0-5.657-1.962-5.657-5.891a6.423,6.423,0,0,1,4.03-6.178c2.052-.9,4.918-1.063,7.108-1.313V7.976a4.864,4.864,0,0,0-.457-2.738,2.529,2.529,0,0,0-2.121-.984,2.881,2.881,0,0,0-3.041,2.27.791.791,0,0,1-.654.691L1.56,6.823A.669.669,0,0,1,1,6.03C1.842,1.586,5.856.246,9.45.246a8.57,8.57,0,0,1,5.694,1.882c1.84,1.717,1.664,4.009,1.664,6.5v5.891a5.17,5.17,0,0,0,1.425,3.5.71.71,0,0,1-.011,1c-.771.643-2.143,1.84-2.9,2.509l-.011-.011" transform="translate(-0.364 -0.246)" fill="#221f1f"/>
</svg>
