<svg xmlns="http://www.w3.org/2000/svg" width="87.854" height="64.344" viewBox="0 0 87.854 64.344">
  <path id="Path_71899" data-name="Path 71899" d="M56.643,2.53A36.74,36.74,0,0,0,15.733,30.8c-3.091,13.522-.656,29.5.708,43.843l9.729-9.264c1.04-.99,6.069,1.1,5.24,1.885L16.962,81.021c.006.089.014.181.02.272.02.316-.284.438-.759.432l-2.057,1.959c-.877.835-4.986-.32-5.361-1.436q-2.88-8.57-5.762-17.141a72.192,72.192,0,0,1-3.03-9.011c-.3-1.142,5.033-.347,5.481.988q1.514,4.5,3.028,9.008c.641,1.559,1.345,3.088,2.1,4.592C8.7,52.311,5.564,31.05,16.116,16.027,25.27,3,40.36-1.648,55.6.505c2.233.315,4.968,2.58,1.041,2.025" transform="matrix(-0.07, -0.998, 0.998, -0.07, 4.09, 64.344)" fill="#24b34b"/>
</svg>
