<svg xmlns="http://www.w3.org/2000/svg" xmlns:xlink="http://www.w3.org/1999/xlink" width="45.604" height="38.572" viewBox="0 0 45.604 38.572">
  <defs>
    <clipPath id="clip-path">
      <rect id="Rectangle_15143" data-name="Rectangle 15143" width="45.604" height="38.572" transform="translate(0 0)" fill="none" stroke="#000" stroke-width="1.5"/>
    </clipPath>
  </defs>
  <g id="Group_109495" data-name="Group 109495" transform="translate(-1 -1.048)">
    <g id="Group_109494" data-name="Group 109494" transform="translate(1 1.047)" clip-path="url(#clip-path)">
      <path id="Path_72076" data-name="Path 72076" d="M35.216,38.145h-1.4L34.849,20.01H30.7L31.255.5H42.472l-1.9,14.242h6.819v.652Z" transform="translate(-2.248 -0.037)" fill="none" stroke="#000" stroke-miterlimit="10" stroke-width="1.5"/>
      <line id="Line_1800" data-name="Line 1800" y2="7.416" transform="translate(9.743 0.463)" fill="none" stroke="#000" stroke-linecap="square" stroke-miterlimit="10" stroke-width="1.5"/>
      <path id="Path_72077" data-name="Path 72077" d="M14.221.5V2.354a1.854,1.854,0,0,1-1.854,1.854H10.513" transform="translate(-0.77 -0.037)" fill="none" stroke="#000" stroke-linecap="square" stroke-miterlimit="10" stroke-width="1.5"/>
      <path id="Path_72078" data-name="Path 72078" d="M14.221,8.209V6.355A1.854,1.854,0,0,0,12.367,4.5H10.513" transform="translate(-0.77 -0.33)" fill="none" stroke="#000" stroke-linecap="square" stroke-miterlimit="10" stroke-width="1.5"/>
      <path id="Path_72079" data-name="Path 72079" d="M22.223.5V6.063a1.854,1.854,0,0,1-3.708,0V.5" transform="translate(-1.356 -0.037)" fill="none" stroke="#000" stroke-linecap="square" stroke-miterlimit="10" stroke-width="1.5"/>
      <path id="Path_72080" data-name="Path 72080" d="M26.224.5V6.063a1.854,1.854,0,0,1-3.708,0V.5" transform="translate(-1.649 -0.037)" fill="none" stroke="#000" stroke-linecap="square" stroke-miterlimit="10" stroke-width="1.5"/>
      <path id="Path_72081" data-name="Path 72081" d="M.707,16.117,2.286,14.5H2.34v6.53" transform="translate(-0.052 -1.062)" fill="none" stroke="#000" stroke-linecap="square" stroke-miterlimit="10" stroke-width="1.5"/>
      <path id="Rectangle_15140" data-name="Rectangle 15140" d="M.756,0h2.3a.757.757,0,0,1,.757.757V5.774a.757.757,0,0,1-.757.757H.757A.757.757,0,0,1,0,5.774V.756A.756.756,0,0,1,.756,0Z" transform="translate(5.903 13.442)" fill="none" stroke="#000" stroke-linecap="square" stroke-miterlimit="10" stroke-width="1.5"/>
      <path id="Rectangle_15141" data-name="Rectangle 15141" d="M.756,0h2.3a.757.757,0,0,1,.757.757V5.774a.757.757,0,0,1-.757.757H.756A.756.756,0,0,1,0,5.775V.756A.756.756,0,0,1,.756,0Z" transform="translate(13.332 13.442)" fill="none" stroke="#000" stroke-linecap="square" stroke-miterlimit="10" stroke-width="1.5"/>
      <path id="Rectangle_15142" data-name="Rectangle 15142" d="M.756,0h2.3a.757.757,0,0,1,.757.757V5.774a.757.757,0,0,1-.757.757H.756A.756.756,0,0,1,0,5.775V.756A.756.756,0,0,1,.756,0Z" transform="translate(20.762 13.442)" fill="none" stroke="#000" stroke-linecap="square" stroke-miterlimit="10" stroke-width="1.5"/>
      <line id="Line_1801" data-name="Line 1801" x2="26.169" transform="translate(2.288 25.535)" fill="none" stroke="#000" stroke-linecap="square" stroke-miterlimit="10" stroke-width="1.5"/>
      <line id="Line_1802" data-name="Line 1802" x2="25.905" transform="translate(2.288 29.244)" fill="none" stroke="#000" stroke-linecap="square" stroke-miterlimit="10" stroke-width="1.5"/>
      <line id="Line_1803" data-name="Line 1803" x2="25.611" transform="translate(2.288 32.952)" fill="none" stroke="#000" stroke-linecap="square" stroke-miterlimit="10" stroke-width="1.5"/>
    </g>
  </g>
</svg>
