<svg xmlns="http://www.w3.org/2000/svg" width="43.179" height="43.18" viewBox="0 0 43.179 43.18">
  <g id="Group_109483" data-name="Group 109483" transform="translate(0.059 0.059)">
    <g id="Group_109505" data-name="Group 109505" transform="translate(0.168 0.168)">
      <path id="Path_72048" data-name="Path 72048" d="M9.354,22.512a7.375,7.375,0,0,1-3.361-1.344C2.6,17.134,3.625,10.091,7.337,6.378,11.371,2.344,17.421,1,24.176,1c-3.578,3.522.519,9.808-4.284,16.179" transform="translate(-1.437 -0.477)" fill="none" stroke="#000" stroke-linecap="round" stroke-linejoin="round" stroke-width="1.5"/>
      <path id="Path_72049" data-name="Path 72049" d="M42.739,16H39a1.345,1.345,0,0,0-1.275.919l-.816,2.448a.673.673,0,0,0,.453.859l3.023.864a1.815,1.815,0,0,1,1.262,1.3h0a1.345,1.345,0,0,1-1.3,1.671H36.359a1.592,1.592,0,0,0-1.293.975L34.117,26.8a1.344,1.344,0,0,0,.061,1.215L36.1,31.168a2.016,2.016,0,0,0,1.721.966h.455a.672.672,0,0,1,.61.391l3.156,6.839a1.345,1.345,0,0,0,2.027.512l.014-.011a3.361,3.361,0,0,0,1.344-2.689V36.167L47.3,33.174c.934-1.494,1.383-3.043.6-4.351l-1.075-1.8a.672.672,0,0,1,.618-.937h2.017" transform="translate(-11.293 -5.394)" fill="none" stroke="#000" stroke-linecap="round" stroke-linejoin="round" stroke-width="1.5"/>
      <path id="Path_72050" data-name="Path 72050" d="M10.411,48.444C1,48.444,1,39.7,1,37.047,3.017,39.7,12.384,39.371,10.411,48.444Z" transform="translate(-0.477 -12.292)" fill="none" stroke="#000" stroke-linecap="round" stroke-linejoin="round" stroke-width="1.5"/>
      <path id="Path_72051" data-name="Path 72051" d="M12.206,51.174a36.274,36.274,0,0,1-5.2-5.8" transform="translate(-2.447 -15.022)" fill="none" stroke="#000" stroke-linecap="round" stroke-linejoin="round" stroke-width="1.5"/>
      <path id="Path_72052" data-name="Path 72052" d="M20.026,39a15.5,15.5,0,0,1-5.6,10.078" transform="translate(-4.877 -12.932)" fill="none" stroke="#000" stroke-linecap="round" stroke-linejoin="round" stroke-width="1.5"/>
      <path id="Path_72053" data-name="Path 72053" d="M13,34.724c2.458-4.384,6.05-4.035,7.395-6.724,2.017,1.344,6.933,14.644-6.427,17.372" transform="translate(-4.41 -9.327)" fill="none" stroke="#000" stroke-linecap="round" stroke-linejoin="round" stroke-width="1.5"/>
      <path id="Path_72054" data-name="Path 72054" d="M29,60.361S29,57,33.033,57a2.487,2.487,0,0,1,2.017,1.344l1.344-.672" transform="translate(-9.654 -18.832)" fill="none" stroke="#000" stroke-linecap="round" stroke-linejoin="round" stroke-width="1.5"/>
      <path id="Path_72055" data-name="Path 72055" d="M15.739,8.982C10.482,13.491,7,19.815,7,26.472" transform="translate(-2.444 -3.093)" fill="none" stroke="#000" stroke-linecap="round" stroke-linejoin="round" stroke-width="1.5"/>
      <path id="Path_72056" data-name="Path 72056" d="M14.424,38.64A18.823,18.823,0,1,0,30.234,7.153" transform="translate(-4.877 -2.494)" fill="none" stroke="#000" stroke-linecap="round" stroke-linejoin="round" stroke-width="1.5"/>
    </g>
  </g>
</svg>
