<svg xmlns="http://www.w3.org/2000/svg" xmlns:xlink="http://www.w3.org/1999/xlink" width="52" height="46" viewBox="0 0 52 46">
  <defs>
    <clipPath id="clip-path">
      <rect id="Rectangle_15137" data-name="Rectangle 15137" width="52" height="46" transform="translate(-0.115 0.458)" fill="none" stroke="#000" stroke-width="1.5"/>
    </clipPath>
  </defs>
  <g id="Group_109485" data-name="Group 109485" transform="translate(0.115 -0.459)">
    <g id="Group_109484" data-name="Group 109484" transform="translate(0 0)" clip-path="url(#clip-path)">
      <ellipse id="Ellipse_365" data-name="Ellipse 365" cx="5.662" cy="6.471" rx="5.662" ry="6.471" transform="translate(30.738 24.3)" fill="none" stroke="#000" stroke-linecap="round" stroke-linejoin="round" stroke-width="1.5"/>
      <path id="Path_72057" data-name="Path 72057" d="M32.089,42.984H28.666A4.6,4.6,0,0,1,24,38.454V34.571a4.6,4.6,0,0,1,4.666-4.53h3.423" transform="translate(-4.586 -5.741)" fill="none" stroke="#000" stroke-linecap="round" stroke-linejoin="round" stroke-width="1.5"/>
      <path id="Path_72058" data-name="Path 72058" d="M54.809,43.063a2.022,2.022,0,0,1,4.045,0v.4c0,.809-1.618,2.427-2.427,3.236L54,49.13h4.853" transform="translate(-10.319 -7.843)" fill="none" stroke="#000" stroke-linecap="round" stroke-linejoin="round" stroke-width="1.5"/>
      <path id="Path_72059" data-name="Path 72059" d="M42.923,45.459a20.227,20.227,0,1,1-18.6-35.914" transform="translate(-2.484 -1.824)" fill="none" stroke="#000" stroke-linecap="round" stroke-linejoin="round" stroke-width="1.5"/>
      <path id="Path_72060" data-name="Path 72060" d="M49.917,10.019a20.254,20.254,0,0,1,9.988,22.667" transform="translate(-9.539 -1.915)" fill="none" stroke="#000" stroke-linecap="round" stroke-linejoin="round" stroke-width="1.5"/>
      <path id="Path_72061" data-name="Path 72061" d="M14.2,19.105c-3.687-4.9.751-12.632,6.352-15.872A16.037,16.037,0,0,1,28.34,1C35.489.918,41.52,5.308,41.283,5.347,34.465,6.48,35.641,14,29.045,18.752c-3.837,2.766-8.114,3.977-11.359,2.944" transform="translate(-2.455 -0.192)" fill="none" stroke="#000" stroke-linecap="round" stroke-linejoin="round" stroke-width="1.5"/>
      <path id="Path_72062" data-name="Path 72062" d="M10.707,30.776a5.041,5.041,0,0,0-2.632-4.157c-3.4-1.8-7.184.917-7.072.934,2.368.361,1.833,3.357,4.123,4.869a3.46,3.46,0,0,0,2.346.843" transform="translate(-0.191 -4.969)" fill="none" stroke="#000" stroke-linecap="round" stroke-linejoin="round" stroke-width="1.5"/>
      <path id="Path_72063" data-name="Path 72063" d="M8,30c3.1.778,4.013,3.312,4.352,5.149" transform="translate(-1.529 -5.733)" fill="none" stroke="#000" stroke-linecap="round" stroke-linejoin="round" stroke-width="1.5"/>
    </g>
  </g>
</svg>
