<svg xmlns="http://www.w3.org/2000/svg" width="44.118" height="40.5" viewBox="0 0 44.118 40.5">
  <g id="Icon-Edu" transform="translate(0.309)">
    <g id="REC-Solar-Icon_Education-K-12">
      <path id="Path_71970" data-name="Path 71970" d="M28.75,13.75v26h-14v-26l7-8Z" fill="none" stroke="#000" stroke-linecap="round" stroke-linejoin="round" stroke-width="1.5"/>
      <path id="Path_71971" data-name="Path 71971" d="M28.75,39.75h10a2.006,2.006,0,0,0,2-2v-20h-12" fill="none" stroke="#000" stroke-linecap="round" stroke-linejoin="round" stroke-width="1.5"/>
      <path id="Path_71972" data-name="Path 71972" d="M15.75,39.75h-11a2.006,2.006,0,0,1-2-2v-20h12" fill="none" stroke="#000" stroke-linecap="round" stroke-linejoin="round" stroke-width="1.5"/>
      <rect id="Rectangle_15110" data-name="Rectangle 15110" width="4" height="4" rx="2" transform="translate(19.75 16.75)" fill="none" stroke="#000" stroke-linecap="round" stroke-linejoin="round" stroke-width="1.5"/>
      <path id="Path_71973" data-name="Path 71973" d="M19.75,39.75v-9a2.006,2.006,0,0,1,2-2h0a2.006,2.006,0,0,1,2,2v9" fill="none" stroke="#000" stroke-linecap="round" stroke-linejoin="round" stroke-width="1.5"/>
      <rect id="Rectangle_15111" data-name="Rectangle 15111" width="4" height="4" transform="translate(32.75 21.75)" fill="none" stroke="#000" stroke-linecap="round" stroke-linejoin="round" stroke-width="1.5"/>
      <rect id="Rectangle_15112" data-name="Rectangle 15112" width="4" height="4" transform="translate(32.75 30.75)" fill="none" stroke="#000" stroke-linecap="round" stroke-linejoin="round" stroke-width="1.5"/>
      <rect id="Rectangle_15113" data-name="Rectangle 15113" width="4" height="4" transform="translate(6.75 21.75)" fill="none" stroke="#000" stroke-linecap="round" stroke-linejoin="round" stroke-width="1.5"/>
      <rect id="Rectangle_15114" data-name="Rectangle 15114" width="4" height="4" transform="translate(6.75 30.75)" fill="none" stroke="#000" stroke-linecap="round" stroke-linejoin="round" stroke-width="1.5"/>
      <line id="Line_1727" data-name="Line 1727" x2="42" transform="translate(0.75 39.75)" fill="none" stroke="#000" stroke-linecap="round" stroke-linejoin="round" stroke-width="1.5"/>
      <line id="Line_1728" data-name="Line 1728" y1="5" transform="translate(21.75 0.75)" fill="none" stroke="#000" stroke-linecap="round" stroke-linejoin="round" stroke-width="1.5"/>
      <line id="Line_1729" data-name="Line 1729" x2="3" transform="translate(22.75 0.75)" fill="none" stroke="#000" stroke-linecap="round" stroke-linejoin="round" stroke-width="1.5"/>
      <line id="Line_1730" data-name="Line 1730" x2="3" transform="translate(22.75 1.75)" fill="none" stroke="#000" stroke-linecap="round" stroke-linejoin="round" stroke-width="1.5"/>
      <line id="Line_1731" data-name="Line 1731" x2="3" transform="translate(22.75 2.75)" fill="none" stroke="#000" stroke-linecap="round" stroke-linejoin="round" stroke-width="1.5"/>
      <path id="Path_71974" data-name="Path 71974" d="M.75,17.75l9-10h10" fill="none" stroke="#000" stroke-linecap="round" stroke-linejoin="round" stroke-width="1.5"/>
      <path id="Path_71975" data-name="Path 71975" d="M42.75,17.75l-9-10h-10" fill="none" stroke="#000" stroke-linecap="round" stroke-linejoin="round" stroke-width="1.5"/>
    </g>
  </g>
</svg>
