<svg xmlns="http://www.w3.org/2000/svg" width="44.709" height="44.709" viewBox="0 0 44.709 44.709">
  <g id="Icon-Financing" transform="translate(0.275 0.275)">
    <g id="REC-Solar-Icon_Finance-circulating-x4">
      <path id="Path_72101" data-name="Path 72101" d="M25.08,16.4a3.762,3.762,0,0,0-3.27-1.96,3.372,3.372,0,0,0-.92,6.65c6.71,2.31,4.28,7.69.99,7.72a4.287,4.287,0,0,1-3.99-2.15" fill="none" stroke="#000" stroke-linecap="round" stroke-linejoin="round" stroke-width="1.5"/>
      <line id="Line_1849" data-name="Line 1849" x2="0.09" y2="19.12" transform="translate(21.69 12.1)" fill="none" stroke="#000" stroke-linecap="round" stroke-linejoin="round" stroke-width="1.5"/>
      <g id="REC_Solar_Icon_-_Finance_amp_Shopping_38_Rotating_money" data-name="REC Solar Icon - Finance &amp;amp; Shopping 38 Rotating money">
        <g id="Group_109513" data-name="Group 109513">
          <path id="Path_72102" data-name="Path 72102" d="M3.34,25.08A19,19,0,0,0,19.08,40.82" fill="none" stroke="#000" stroke-linecap="round" stroke-linejoin="round" stroke-width="1.5"/>
          <path id="Path_72103" data-name="Path 72103" d="M16.94,36.35l2.59,4.48-4.48,2.58" fill="none" stroke="#000" stroke-linecap="round" stroke-linejoin="round" stroke-width="1.5"/>
        </g>
        <g id="Group_109514" data-name="Group 109514">
          <path id="Path_72104" data-name="Path 72104" d="M25.08,40.82A19,19,0,0,0,40.82,25.08" fill="none" stroke="#000" stroke-linecap="round" stroke-linejoin="round" stroke-width="1.5"/>
          <path id="Path_72105" data-name="Path 72105" d="M36.35,27.22l4.48-2.58,2.58,4.48" fill="none" stroke="#000" stroke-linecap="round" stroke-linejoin="round" stroke-width="1.5"/>
        </g>
        <g id="Group_109515" data-name="Group 109515">
          <path id="Path_72106" data-name="Path 72106" d="M19.08,3.34A19,19,0,0,0,3.34,19.08" fill="none" stroke="#000" stroke-linecap="round" stroke-linejoin="round" stroke-width="1.5"/>
          <path id="Path_72107" data-name="Path 72107" d="M7.81,16.94,3.34,19.53.75,15.05" fill="none" stroke="#000" stroke-linecap="round" stroke-linejoin="round" stroke-width="1.5"/>
        </g>
        <g id="Group_109516" data-name="Group 109516">
          <path id="Path_72108" data-name="Path 72108" d="M40.82,19.08A19,19,0,0,0,25.08,3.34" fill="none" stroke="#000" stroke-linecap="round" stroke-linejoin="round" stroke-width="1.5"/>
          <path id="Path_72109" data-name="Path 72109" d="M27.22,7.81,24.64,3.34,29.12.75" fill="none" stroke="#000" stroke-linecap="round" stroke-linejoin="round" stroke-width="1.5"/>
        </g>
      </g>
    </g>
  </g>
</svg>
