<svg xmlns="http://www.w3.org/2000/svg" width="39.237" height="39.312" viewBox="0 0 39.237 39.312">
  <g id="Icon-CaseStudies" transform="translate(-867.382 -440.779)">
    <g id="Group_109466" data-name="Group 109466" transform="translate(-69.332 31.004)">
      <path id="Path_72035" data-name="Path 72035" d="M36.9,1l5.119,12.376L54.79,14.67l-9.613,8.943L47.954,36.79,36.9,29.942,25.836,36.79l2.777-13.177L19,14.67l12.776-1.294Z" transform="translate(919.438 410.737)" fill="rgba(0,0,0,0)" stroke="#000" stroke-width="1.5"/>
      <path id="Path_72034" data-name="Path 72034" d="M28.5,1l2.717,6.567,6.779.687L32.891,13l1.473,6.992L28.5,16.358l-5.868,3.634L24.1,13,19,8.254l6.779-.687Z" transform="translate(927.837 420.015)" fill="rgba(0,0,0,0)" stroke="#000" stroke-width="1.5"/>
    </g>
    <line id="Line_1770" data-name="Line 1770" y1="4" x2="4" transform="translate(895.5 447.5)" fill="none" stroke="#000" stroke-width="1.5"/>
    <line id="Line_1771" data-name="Line 1771" x1="4" y1="4" transform="translate(874.5 447.5)" fill="none" stroke="#000" stroke-width="1.5"/>
    <line id="Line_1773" data-name="Line 1773" x1="5" y2="2" transform="translate(869.5 466.5)" fill="none" stroke="#000" stroke-width="1.5"/>
  </g>
</svg>
