<svg id="Icon-CommunitySolar" xmlns="http://www.w3.org/2000/svg" width="43.55" height="42.66" viewBox="0 0 43.55 42.66">
  <g id="REC-Solar-Icon_Solar-Community">
    <path id="Path_71944" data-name="Path 71944" d="M16.75,17.91l-8-8-8,8Z" fill="none" stroke="#000" stroke-linecap="round" stroke-linejoin="round" stroke-width="1.5"/>
    <path id="Path_71945" data-name="Path 71945" d="M15.75,18.91v23h-14v-23" fill="none" stroke="#000" stroke-linecap="round" stroke-linejoin="round" stroke-width="1.5"/>
    <rect id="Rectangle_15108" data-name="Rectangle 15108" width="4" height="4" transform="translate(6.75 21.91)" fill="none" stroke="#000" stroke-linecap="round" stroke-linejoin="round" stroke-width="1.5"/>
    <path id="Path_71946" data-name="Path 71946" d="M6.75,41.91v-11h4v11" fill="none" stroke="#000" stroke-linecap="round" stroke-linejoin="round" stroke-width="1.5"/>
    <path id="Path_71947" data-name="Path 71947" d="M15.75,20.91h5.96a4.974,4.974,0,0,1,3.5,1.43l5.67,5.57H27.75v7" fill="none" stroke="#000" stroke-linecap="round" stroke-linejoin="round" stroke-width="1.5"/>
    <path id="Path_71948" data-name="Path 71948" d="M14.75,41.91h28V35.18c0-6.46-3.4-6.5-5.33-6.5a3.5,3.5,0,0,0-3.5,3.5c0,1.27-.66.5-2.5.5a3.458,3.458,0,0,0-3.46,3.1,3.479,3.479,0,0,0-5.54.62,3.491,3.491,0,0,0-6.5,1.78" fill="none" stroke="#000" stroke-linecap="round" stroke-linejoin="round" stroke-width="1.5"/>
    <g id="REC_Solar_Icon_-_Weather_31_Tree">
      <path id="Path_71949" data-name="Path 71949" d="M40.69,15.94a5.563,5.563,0,0,0,.28-1.74,5.48,5.48,0,1,0-10.96,0,5.563,5.563,0,0,0,.28,1.74A4.8,4.8,0,0,0,35.49,24a4.786,4.786,0,0,0,7.31-4.08,4.825,4.825,0,0,0-2.11-3.98Z" fill="none" stroke="#000" stroke-linecap="round" stroke-linejoin="round" stroke-width="1.5"/>
      <line id="Line_1702" data-name="Line 1702" y1="4.57" transform="translate(35.5 24.15)" fill="none" stroke="#000" stroke-linecap="round" stroke-linejoin="round" stroke-width="1.5"/>
    </g>
    <path id="Path_71950" data-name="Path 71950" d="M14.2,15.21a7.584,7.584,0,0,1,15.16,0" fill="none" stroke="#000" stroke-linecap="round" stroke-linejoin="round" stroke-width="1.5"/>
    <line id="Line_1703" data-name="Line 1703" y2="3.24" transform="translate(21.78 0.75)" fill="none" stroke="#000" stroke-linecap="round" stroke-linejoin="round" stroke-width="1.5"/>
    <line id="Line_1704" data-name="Line 1704" x1="2.16" y2="2.16" transform="translate(29.9 5.47)" fill="none" stroke="#000" stroke-linecap="round" stroke-linejoin="round" stroke-width="1.5"/>
    <line id="Line_1705" data-name="Line 1705" x2="2.16" y2="2.16" transform="translate(11.5 5.47)" fill="none" stroke="#000" stroke-linecap="round" stroke-linejoin="round" stroke-width="1.5"/>
  </g>
</svg>
