<svg xmlns="http://www.w3.org/2000/svg" xmlns:xlink="http://www.w3.org/1999/xlink" width="42" height="37" viewBox="0 0 42 37">
  <defs>
    <clipPath id="clip-path">
      <rect id="Rectangle_15132" data-name="Rectangle 15132" width="42" height="37" transform="translate(0 -0.376)" fill="rgba(0,0,0,0)" stroke="#000" stroke-linecap="round" stroke-linejoin="round" stroke-width="1.5"/>
    </clipPath>
  </defs>
  <g id="Icon-News" transform="translate(0 0.376)">
    <g id="Group_109461" data-name="Group 109461" clip-path="url(#clip-path)">
      <path id="Path_72022" data-name="Path 72022" d="M5,35.88a3.488,3.488,0,0,0,3.488-3.488V1H41.624V30.648a5.232,5.232,0,0,1-5.232,5.232Z" transform="translate(-0.64 -0.128)" fill="rgba(0,0,0,0)" stroke="#000" stroke-linecap="round" stroke-linejoin="round" stroke-width="1.5"/>
      <path id="Path_72023" data-name="Path 72023" d="M7.976,34.44V17H1V34.44a3.488,3.488,0,0,0,6.976,0Z" transform="translate(-0.128 -2.176)" fill="rgba(0,0,0,0)" stroke="#000" stroke-linecap="round" stroke-linejoin="round" stroke-width="1.5"/>
      <rect id="Rectangle_15125" data-name="Rectangle 15125" width="19.184" height="0.017" transform="translate(14.824 9.583)" fill="rgba(0,0,0,0)" stroke="#000" stroke-linecap="round" stroke-linejoin="round" stroke-width="1.5"/>
      <rect id="Rectangle_15126" data-name="Rectangle 15126" width="6.976" height="0.017" transform="translate(14.824 16.559)" fill="rgba(0,0,0,0)" stroke="#000" stroke-linecap="round" stroke-linejoin="round" stroke-width="1.5"/>
      <rect id="Rectangle_15127" data-name="Rectangle 15127" width="6.976" height="0.017" transform="translate(14.824 20.92)" fill="rgba(0,0,0,0)" stroke="#000" stroke-linecap="round" stroke-linejoin="round" stroke-width="1.5"/>
      <rect id="Rectangle_15128" data-name="Rectangle 15128" width="6.976" height="0.017" transform="translate(14.824 25.28)" fill="rgba(0,0,0,0)" stroke="#000" stroke-linecap="round" stroke-linejoin="round" stroke-width="1.5"/>
      <rect id="Rectangle_15129" data-name="Rectangle 15129" width="6.976" height="0.017" transform="translate(27.032 16.559)" fill="rgba(0,0,0,0)" stroke="#000" stroke-linecap="round" stroke-linejoin="round" stroke-width="1.5"/>
      <rect id="Rectangle_15130" data-name="Rectangle 15130" width="6.976" height="0.017" transform="translate(27.032 20.92)" fill="rgba(0,0,0,0)" stroke="#000" stroke-linecap="round" stroke-linejoin="round" stroke-width="1.5"/>
      <rect id="Rectangle_15131" data-name="Rectangle 15131" width="6.976" height="0.017" transform="translate(27.032 25.28)" fill="rgba(0,0,0,0)" stroke="#000" stroke-linecap="round" stroke-linejoin="round" stroke-width="1.5"/>
    </g>
  </g>
</svg>
