<svg xmlns="http://www.w3.org/2000/svg" width="47.218" height="47.253" viewBox="0 0 47.218 47.253">
  <g id="Icon-Leadership" transform="translate(0.036 0.038)">
    <line id="Line_1752" data-name="Line 1752" y1="11.53" transform="translate(23.597 20.938)" fill="none" stroke="#000" stroke-linecap="round" stroke-linejoin="round" stroke-width="1.5"/>
    <path id="Path_72011" data-name="Path 72011" d="M11.727,11.715H6.762v7.492" transform="translate(2.899 5.054)" fill="rgba(0,0,0,0)" stroke="#000" stroke-linecap="round" stroke-linejoin="round" stroke-width="1.5"/>
    <path id="Path_72012" data-name="Path 72012" d="M22.763,11.715h4.965v7.492" transform="translate(9.758 5.054)" fill="rgba(0,0,0,0)" stroke="#000" stroke-linecap="round" stroke-linejoin="round" stroke-width="1.5"/>
    <line id="Line_1753" data-name="Line 1753" x1="11.915" transform="translate(17.627 32.467)" fill="none" stroke="#000" stroke-linecap="round" stroke-linejoin="round" stroke-width="1.5"/>
    <g id="Group_109459" data-name="Group 109459" transform="translate(0 -0.173)">
      <g id="Group_109460" data-name="Group 109460">
        <path id="Path_72013" data-name="Path 72013" d="M14.625,8.218c0,2.25,5.358,2.25,5.358,0" transform="translate(6.27 3.728)" fill="rgba(0,0,0,0)" stroke="#000" stroke-linecap="round" stroke-linejoin="round" stroke-width="1.5"/>
        <path id="Path_72014" data-name="Path 72014" d="M19.689,6.6a3.821,3.821,0,0,1-4.823,0" transform="translate(6.373 3.036)" fill="rgba(0,0,0,0)" stroke="#000" stroke-linecap="round" stroke-linejoin="round" stroke-width="1.5"/>
        <path id="Path_72015" data-name="Path 72015" d="M28.132,20.535V16.506a4.46,4.46,0,0,0-3.42-4.342c-.749-.18-1.582-.383-2.46-.6a1.558,1.558,0,0,1-1.1-.989l-.043-.12a.835.835,0,0,1,.29-1.06,3.864,3.864,0,0,0,1.749-2.366,9.813,9.813,0,0,0-.264-4.613C21.378-.5,15.247-.313,15.247,4.54a12.143,12.143,0,0,0,.126,2.486,3.852,3.852,0,0,0,1.736,2.357c.376.214.281.663.133,1.067l-.056.151a1.564,1.564,0,0,1-1.086.966c-.872.217-1.7.42-2.442.6a4.464,4.464,0,0,0-3.42,4.343v4.026Z" transform="translate(4.389 0.42)" fill="rgba(0,0,0,0)" stroke="#000" stroke-linecap="round" stroke-linejoin="round" stroke-width="1.5"/>
        <path id="Path_72016" data-name="Path 72016" d="M4.887,27.2c0,2.25,5.358,2.25,5.358,0" transform="translate(2.095 11.863)" fill="rgba(0,0,0,0)" stroke="#000" stroke-linecap="round" stroke-linejoin="round" stroke-width="1.5"/>
        <path id="Path_72017" data-name="Path 72017" d="M9.951,25.581a3.821,3.821,0,0,1-4.823,0" transform="translate(2.198 11.172)" fill="rgba(0,0,0,0)" stroke="#000" stroke-linecap="round" stroke-linejoin="round" stroke-width="1.5"/>
        <path id="Path_72018" data-name="Path 72018" d="M18.394,38.083v-2.6a4.46,4.46,0,0,0-3.42-4.342c-.749-.18-1.582-.384-2.46-.6a1.558,1.558,0,0,1-1.1-.989l-.043-.12a.835.835,0,0,1,.29-1.06A3.864,3.864,0,0,0,13.413,26a9.812,9.812,0,0,0-.264-4.613c-1.509-2.91-7.639-2.726-7.639,2.127A12.147,12.147,0,0,0,5.635,26a3.852,3.852,0,0,0,1.736,2.357c.376.214.281.663.133,1.067q-.028.077-.056.15a1.56,1.56,0,0,1-1.086.967c-.872.217-1.7.419-2.442.6A4.463,4.463,0,0,0,.5,35.485v2.6Z" transform="translate(0.214 8.555)" fill="rgba(0,0,0,0)" stroke="#000" stroke-linecap="round" stroke-linejoin="round" stroke-width="1.5"/>
        <path id="Path_72019" data-name="Path 72019" d="M24.362,27.2c0,2.25,5.358,2.25,5.358,0" transform="translate(10.444 11.863)" fill="rgba(0,0,0,0)" stroke="#000" stroke-linecap="round" stroke-linejoin="round" stroke-width="1.5"/>
        <path id="Path_72020" data-name="Path 72020" d="M29.426,25.581a3.819,3.819,0,0,1-4.822,0" transform="translate(10.548 11.172)" fill="rgba(0,0,0,0)" stroke="#000" stroke-linecap="round" stroke-linejoin="round" stroke-width="1.5"/>
        <path id="Path_72021" data-name="Path 72021" d="M37.869,38.083v-2.6a4.46,4.46,0,0,0-3.419-4.342c-.75-.18-1.583-.384-2.462-.6a1.558,1.558,0,0,1-1.1-.989l-.043-.12a.835.835,0,0,1,.29-1.06A3.864,3.864,0,0,0,32.888,26a9.812,9.812,0,0,0-.264-4.613c-1.51-2.91-7.639-2.726-7.639,2.127A12.147,12.147,0,0,0,25.11,26a3.852,3.852,0,0,0,1.736,2.357c.376.214.281.663.133,1.067q-.028.077-.056.15a1.56,1.56,0,0,1-1.086.967c-.872.217-1.7.419-2.442.6a4.464,4.464,0,0,0-3.42,4.343v2.6Z" transform="translate(8.563 8.555)" fill="rgba(0,0,0,0)" stroke="#000" stroke-linecap="round" stroke-linejoin="round" stroke-width="1.5"/>
      </g>
    </g>
  </g>
</svg>
