<svg xmlns="http://www.w3.org/2000/svg" width="43.292" height="43.293" viewBox="0 0 43.292 43.293">
  <g id="Icon-WhyREC" transform="translate(0.146 0.147)">
    <g id="Group_109465" data-name="Group 109465" transform="translate(0 0)">
      <path id="Path_72024" data-name="Path 72024" d="M50.3,40.939a43.726,43.726,0,0,1-9.4,9.4" transform="translate(-7.988 -7.996)" fill="none" stroke="#000" stroke-miterlimit="10" stroke-width="1.5"/>
      <path id="Path_72025" data-name="Path 72025" d="M30.074,48.33A44.913,44.913,0,0,0,48.342,30.062" transform="translate(-5.874 -5.872)" fill="none" stroke="#000" stroke-miterlimit="10" stroke-width="1.5"/>
      <path id="Path_72026" data-name="Path 72026" d="M4.738,43.91C23.756,43.8,36.251,32.419,41.732,16.635a26.723,26.723,0,0,0,1.589-8.458" transform="translate(-0.925 -1.597)" fill="none" stroke="#000" stroke-miterlimit="10" stroke-width="1.5"/>
      <path id="Path_72027" data-name="Path 72027" d="M.612,35.748A29.586,29.586,0,0,0,35.633,1.077" transform="translate(-0.12 -0.21)" fill="none" stroke="#000" stroke-miterlimit="10" stroke-width="1.5"/>
      <path id="Path_72028" data-name="Path 72028" d="M1.2,30.022a23.564,23.564,0,0,0,28.4-28.9" transform="translate(-0.234 -0.219)" fill="none" stroke="#000" stroke-miterlimit="10" stroke-width="1.5"/>
      <path id="Path_72029" data-name="Path 72029" d="M1.147,24.218a17.85,17.85,0,0,0,22.506-23.2" transform="translate(-0.224 -0.199)" fill="none" stroke="#000" stroke-miterlimit="10" stroke-width="1.5"/>
      <path id="Path_72030" data-name="Path 72030" d="M.75,4.337V17.629A12.136,12.136,0,0,0,17.568.811H4.284a3.53,3.53,0,0,0-3.53,3.53" transform="translate(-0.146 -0.158)" fill="none" stroke="#000" stroke-miterlimit="10" stroke-width="1.5"/>
      <rect id="Rectangle_15133" data-name="Rectangle 15133" width="41.771" height="41.793" rx="4" transform="translate(0.608 0.604)" fill="none" stroke="#000" stroke-miterlimit="10" stroke-width="1.5"/>
    </g>
  </g>
</svg>
