<svg xmlns="http://www.w3.org/2000/svg" width="26.781" height="40.196" viewBox="0 0 26.781 40.196">
  <g id="Icon-ThoughtLeadership" transform="translate(0.011 0.006)">
    <g id="REC-Solar-Icon_Lightbulb-1">
      <g id="Group_109518" data-name="Group 109518">
        <path id="Path_72110" data-name="Path 72110" d="M26.02,13.38A12.636,12.636,0,1,0,4.81,22.65,14.743,14.743,0,0,1,9.22,30l.56,2.34H17l.56-2.33a15.077,15.077,0,0,1,4.46-7.41,12.564,12.564,0,0,0,4-9.21Z" fill="none" stroke="#000" stroke-linecap="round" stroke-linejoin="round" stroke-width="1.5"/>
        <path id="Path_72111" data-name="Path 72111" d="M10.68,5.26S5.14,6.84,4.36,14.28" fill="none" stroke="#000" stroke-linecap="round" stroke-linejoin="round" stroke-width="1.5"/>
        <path id="Path_72112" data-name="Path 72112" d="M8.87,32.34h9.02v4.23a2.876,2.876,0,0,1-2.87,2.87H11.74a2.877,2.877,0,0,1-2.87-2.87V32.34Z" fill="none" stroke="#000" stroke-linecap="round" stroke-linejoin="round" stroke-width="1.5"/>
      </g>
    </g>
  </g>
</svg>
