<svg xmlns="http://www.w3.org/2000/svg" width="44.882" height="45.188" viewBox="0 0 44.882 45.188">
  <g id="Icon-Careers" transform="translate(0.118 0.071)">
    <g id="Group_109457" data-name="Group 109457" transform="translate(0 0)">
      <path id="Path_72004" data-name="Path 72004" d="M28.112,4.02c10.467,8.053,8.674,24.828-5.384,29.89a15.027,15.027,0,0,1-10.143,0C-1.471,28.848-3.266,12.072,7.2,4.02A17.287,17.287,0,0,1,28.112,4.02Z" transform="translate(0.18 0.18)" fill="rgba(0,0,0,0)" stroke="#000" stroke-linecap="round" stroke-linejoin="round" stroke-width="1.5"/>
      <path id="Path_72005" data-name="Path 72005" d="M23.336,6.372c7.941,5.653,6.654,18.133-3.861,21.574a10.154,10.154,0,0,1-6.29,0C2.669,24.5,1.382,12.025,9.324,6.372A12.2,12.2,0,0,1,23.336,6.372Z" transform="translate(1.507 1.493)" fill="rgba(0,0,0,0)" stroke="#000" stroke-linecap="round" stroke-linejoin="round" stroke-width="1.5"/>
      <path id="Path_72006" data-name="Path 72006" d="M26.606,23.093l8.413,8.413a2.548,2.548,0,0,1,0,3.623,2.6,2.6,0,0,1-3.655,0l-8.4-8.391" transform="translate(8.24 8.288)" fill="rgba(0,0,0,0)" stroke="#000" stroke-linecap="round" stroke-linejoin="round" stroke-width="1.5"/>
      <path id="Path_72007" data-name="Path 72007" d="M19.114,25.7l3.778,3.761,6.542-6.485-3.582-3.567" transform="translate(6.859 6.967)" fill="rgba(0,0,0,0)" stroke="#000" stroke-linecap="round" stroke-linejoin="round" stroke-width="1.5"/>
      <path id="Path_72008" data-name="Path 72008" d="M11.085,16.276c0,2.322,5.527,2.322,5.527,0" transform="translate(3.978 5.842)" fill="rgba(0,0,0,0)" stroke="#000" stroke-linecap="round" stroke-linejoin="round" stroke-width="1.5"/>
      <path id="Path_72009" data-name="Path 72009" d="M16.322,14.525a3.941,3.941,0,0,1-4.975,0" transform="translate(4.072 5.213)" fill="rgba(0,0,0,0)" stroke="#000" stroke-linecap="round" stroke-linejoin="round" stroke-width="1.5"/>
      <path id="Path_72010" data-name="Path 72010" d="M24.479,22.934a4.6,4.6,0,0,0-3.288-2.99c-.775-.19-1.631-.408-2.541-.625A1.608,1.608,0,0,1,17.522,18.3l-.041-.122a.858.858,0,0,1,.3-1.1,1.866,1.866,0,0,0,.272-.177,4.1,4.1,0,0,0,1.522-2.256c.19-.611.34-3.6-.272-4.77-1.549-3-7.881-2.813-7.881,2.2a13.088,13.088,0,0,0,.136,2.568A4.1,4.1,0,0,0,13.078,16.9a3.075,3.075,0,0,0,.272.177c.38.217.285.679.136,1.1a.487.487,0,0,0-.054.149,1.6,1.6,0,0,1-1.128.992c-.9.231-1.753.435-2.514.625a4.568,4.568,0,0,0-3.275,2.962v.014" transform="translate(2.338 2.836)" fill="rgba(0,0,0,0)" stroke="#000" stroke-linecap="round" stroke-linejoin="round" stroke-width="1.5"/>
    </g>
  </g>
</svg>
