<svg xmlns="http://www.w3.org/2000/svg" width="36.157" height="34.49" viewBox="0 0 36.157 34.49">
  <g id="Icon-Blog" transform="translate(-1.859 -0.2)">
    <g id="Group_109452" data-name="Group 109452" transform="translate(0.95 0.95)">
      <path id="Path_72000" data-name="Path 72000" d="M31.97,1H4.687A3.875,3.875,0,0,0,1,5.019V8.871H35.657V5.019A3.875,3.875,0,0,0,31.97,1Z" transform="translate(0.659 -1)" fill="rgba(0,0,0,0)" stroke="#000" stroke-linecap="round" stroke-linejoin="round" stroke-width="1.5"/>
      <path id="Path_72001" data-name="Path 72001" d="M1,31.892a3.875,3.875,0,0,0,3.687,4.019H31.97a3.875,3.875,0,0,0,3.687-4.019v-21.1H1Z" transform="translate(0.659 -2.921)" fill="rgba(0,0,0,0)" stroke="#000" stroke-linecap="round" stroke-linejoin="round" stroke-width="1.5"/>
      <rect id="Rectangle_15119" data-name="Rectangle 15119" width="0.016" height="6.43" transform="translate(10.039 13.598)" fill="rgba(0,0,0,0)" stroke="#000" stroke-linecap="round" stroke-linejoin="round" stroke-width="1.5"/>
      <path id="Path_72002" data-name="Path 72002" d="M15.936,19.522H15.92v-1.6H9.506v1.6H9.49V17.907h6.446Z" transform="translate(-2.666 -4.317)" fill="rgba(0,0,0,0)" stroke="#000" stroke-linecap="round" stroke-linejoin="round" stroke-width="1.5"/>
      <rect id="Rectangle_15120" data-name="Rectangle 15120" width="3.215" height="0.016" transform="translate(8.44 20.02)" fill="rgba(0,0,0,0)" stroke="#000" stroke-linecap="round" stroke-linejoin="round" stroke-width="1.5"/>
      <rect id="Rectangle_15121" data-name="Rectangle 15121" width="12.861" height="0.016" transform="translate(18.085 14.393)" fill="rgba(0,0,0,0)" stroke="#000" stroke-linecap="round" stroke-linejoin="round" stroke-width="1.5"/>
      <rect id="Rectangle_15122" data-name="Rectangle 15122" width="12.861" height="0.016" transform="translate(18.085 19.618)" fill="rgba(0,0,0,0)" stroke="#000" stroke-linecap="round" stroke-linejoin="round" stroke-width="1.5"/>
      <rect id="Rectangle_15123" data-name="Rectangle 15123" width="24.114" height="0.016" transform="translate(6.832 24.843)" fill="rgba(0,0,0,0)" stroke="#000" stroke-linecap="round" stroke-linejoin="round" stroke-width="1.5"/>
      <path id="Path_72003" data-name="Path 72003" d="M15.821,6.193a.393.393,0,1,1,.393-.394A.394.394,0,0,1,15.821,6.193Zm-3.542,0a.393.393,0,1,1,.394-.394A.394.394,0,0,1,12.278,6.193Zm-3.542,0A.393.393,0,1,1,9.131,5.8.394.394,0,0,1,8.737,6.193Z" transform="translate(-2.441 -1.864)" stroke="#000" stroke-linecap="round" stroke-linejoin="round" stroke-width="1.5"/>
    </g>
  </g>
</svg>
