<svg xmlns="http://www.w3.org/2000/svg" width="166.45" height="52.144" viewBox="0 0 166.45 52.144">
	<g transform="translate(-25.91 -25.911)">
		<path d="M437.433,449.117h7.3a4.387,4.387,0,0,0,4.387-4.387v-7.3a54.349,54.349,0,0,1-11.683,11.683" transform="translate(-371.385 -371.386)" fill="#013a56"/>
		<path d="M367.431,341.222a47.045,47.045,0,0,1-26.21,26.21h8.57a50.833,50.833,0,0,0,17.64-17.64Z" transform="translate(-289.7 -289.701)" fill="#046388"/>
		<path d="M219.652,179.94A39.7,39.7,0,0,1,171.6,218.766v3.849a43.479,43.479,0,0,0,51.01-51.01h-3.849a39.692,39.692,0,0,1,.887,8.335" transform="translate(-145.694 -145.694)" fill="#02aea8"/>
		<path d="M212.568,179.94A32.626,32.626,0,0,1,171.6,211.484v3.867A36.371,36.371,0,0,0,215.352,171.6h-3.867a32.558,32.558,0,0,1,1.083,8.335" transform="translate(-145.694 -145.694)" fill="#24b34b"/>
		<path d="M205.491,179.94A25.537,25.537,0,0,1,171.6,204.088v3.924A29.284,29.284,0,0,0,208.012,171.6h-3.924a25.43,25.43,0,0,1,1.4,8.335" transform="translate(-145.694 -145.694)" fill="#b9d432"/>
		<path d="M198.437,179.94a18.484,18.484,0,0,1-26.833,16.5V200.5A22.183,22.183,0,0,0,200.5,171.6h-4.053a18.376,18.376,0,0,1,1.993,8.335" transform="translate(-145.694 -145.694)" fill="#dde11d"/>
		<path d="M171.6,175.992V192.51a15.082,15.082,0,0,0,20.9-20.9H175.992a4.387,4.387,0,0,0-4.387,4.387" transform="translate(-145.694 -145.694)" fill="#fdd700"/>
		<path d="M599.61,196.465h-4.219L591.2,188h-4.517v8.47h-3.894V173.75h11.559c3.083,0,4.543,1.46,4.543,4.543v5.062c0,2.726-1.136,4.186-3.537,4.478ZM593.8,184.524c.876,0,1.2-.324,1.2-1.233v-4.8c0-.876-.324-1.2-1.2-1.2h-7.113v7.236Z" transform="translate(-494.798 -147.516)" fill="#fff"/>
		<path d="M720.023,173.75h16.872v3.57H723.917V183.1h11.03v3.5h-11.03v6.3h12.977v3.57H720.023Z" transform="translate(-611.307 -147.515)" fill="#fff"/>
		<path d="M857.552,191.921V178.292c0-3.083,1.46-4.543,4.543-4.543h7.815c3.083,0,4.543,1.46,4.543,4.543v3.278h-3.894v-3.05c0-.876-.325-1.2-1.2-1.2h-6.679c-.909,0-1.233.324-1.233,1.2v13.175c0,.876.325,1.2,1.233,1.2h6.679c.876,0,1.2-.325,1.2-1.2v-3.05h3.894v3.278c0,3.05-1.46,4.543-4.543,4.543H862.1c-3.083,0-4.543-1.493-4.543-4.543" transform="translate(-728.071 -147.515)" fill="#fff"/>
		<path d="M582.794,384.682v-2.661h3.829v2.5c0,.909.324,1.233,1.2,1.233h6.712c.876,0,1.2-.324,1.2-1.233v-2.726c0-1.039-.422-1.363-1.493-1.59l-6.712-1.363c-2.726-.617-4.673-1.59-4.673-4.673v-3.115c0-3.083,1.46-4.543,4.543-4.543h7.328c3.083,0,4.543,1.46,4.543,4.543v2.434h-3.8v-2.271c0-.909-.324-1.233-1.233-1.233h-6.258c-.909,0-1.233.325-1.233,1.233v2.4c0,1.038.422,1.363,1.525,1.623l6.68,1.331c2.758.617,4.673,1.59,4.673,4.673v3.44c0,3.083-1.46,4.543-4.543,4.543h-7.75c-3.083,0-4.543-1.46-4.543-4.543" transform="translate(-494.798 -311.171)" fill="#fff"/>
		<path d="M720.023,384.682V371.053c0-3.083,1.46-4.543,4.543-4.543h7.768c3.083,0,4.543,1.46,4.543,4.543v13.629c0,3.083-1.46,4.543-4.543,4.543h-7.768c-3.083,0-4.543-1.46-4.543-4.543m11.76.974c.876,0,1.2-.325,1.2-1.2V371.28c0-.876-.325-1.2-1.2-1.2H725.15c-.909,0-1.233.324-1.233,1.2v13.175c0,.876.324,1.2,1.233,1.2Z" transform="translate(-611.307 -311.171)" fill="#fff"/>
		<path d="M857.552,366.51h3.894v19.146h10.041l-1.061,3.57H857.552Z" transform="translate(-728.071 -311.171)" fill="#fff"/>
		<path d="M979.781,383.675h-8.4l-1.72,5.549h-4.089l7.366-22.715h5.452l7.366,22.715H981.5Zm-1.1-3.569-3.115-10.092-3.115,10.092Z" transform="translate(-819.778 -311.17)" fill="#fff"/>
		<path d="M1136.319,388.812H1132.1l-4.186-8.47h-4.608v8.47h-3.894V366.1h11.65c3.082,0,4.543,1.46,4.543,4.543V375.7c0,2.726-1.136,4.186-3.537,4.478Zm-5.808-11.942c.876,0,1.2-.324,1.2-1.233v-4.8c0-.876-.324-1.2-1.2-1.2h-7.2v7.236Z" transform="translate(-950.393 -310.82)" fill="#fff"/>
		<path d="M1249.5,503.34c0-.021,0-.034.022-.04l.061-.015a.028.028,0,0,1,.04.021.54.54,0,0,0,.563.4c.324,0,.523-.168.523-.443,0-.26-.119-.382-.538-.559-.443-.187-.605-.361-.605-.633,0-.33.248-.544.633-.544a.635.635,0,0,1,.633.446.026.026,0,0,1-.018.037l-.061.021c-.018.006-.03,0-.037-.018a.51.51,0,0,0-.516-.367c-.318,0-.51.159-.51.422,0,.226.119.349.529.52.458.193.614.361.614.66a.576.576,0,0,1-.648.578.641.641,0,0,1-.682-.486" transform="translate(-1060.839 -425.802)" fill="#fff"/>
		<path d="M1262.036,503.936v-2.177a.029.029,0,0,1,.031-.031h.15a.04.04,0,0,1,.037.024l.431,1.275c.085.26.177.517.26.776h0c.083-.26.165-.516.256-.776l.435-1.275a.039.039,0,0,1,.036-.024h.138a.029.029,0,0,1,.03.031v2.177a.029.029,0,0,1-.03.03h-.058a.029.029,0,0,1-.031-.03V501.87h-.006l-.7,2.073a.04.04,0,0,1-.037.024h-.073a.039.039,0,0,1-.037-.024l-.706-2.082h-.006v2.076a.029.029,0,0,1-.031.03h-.058a.029.029,0,0,1-.031-.03" transform="translate(-1071.482 -425.973)" fill="#fff"/>
	</g>
</svg>