<svg xmlns="http://www.w3.org/2000/svg" width="17.792" height="12.621" viewBox="0 0 17.792 12.621">
  <path id="Path_58065" data-name="Path 58065" d="M221.871,18.972V13.649l4.638,2.661Zm10.34-6.995a2.2,2.2,0,0,0-1.6-1.6,63.152,63.152,0,0,0-13.838,0,2.2,2.2,0,0,0-1.6,1.6,23.412,23.412,0,0,0-.38,4.334,23.415,23.415,0,0,0,.38,4.334,2.2,2.2,0,0,0,1.6,1.6,51.434,51.434,0,0,0,6.919.38,51.436,51.436,0,0,0,6.919-.38,2.2,2.2,0,0,0,1.6-1.6,23.493,23.493,0,0,0,.38-4.334,23.493,23.493,0,0,0-.38-4.334" transform="translate(-214.8 -10)" fill="#150e40"/>
</svg>
