<svg xmlns="http://www.w3.org/2000/svg" width="12.391" height="13.845" viewBox="0 0 12.391 13.845">
  <path id="Path_46394" data-name="Path 46394" d="M13.776,14.058H11.042v9.4h2.735Zm1.282,0v9.4h2.735V17.476l.684-.427.684-.171a1.367,1.367,0,0,1,.769.171l.342.342a1.026,1.026,0,0,1,.171.427v5.726h2.649V17.733a3.589,3.589,0,0,0-.513-1.795,3.418,3.418,0,0,0-1.367-1.367,4.358,4.358,0,0,0-1.795-.427,3.5,3.5,0,0,0-1.795.342v-.427Zm-3.846-3.846a1.709,1.709,0,0,0-.513,1.2,1.624,1.624,0,0,0,.513,1.2,1.538,1.538,0,0,0,1.2.513,1.692,1.692,0,0,0,1.2-2.906,1.624,1.624,0,0,0-1.2-.513,1.538,1.538,0,0,0-1.2.513" transform="translate(-10.7 -9.699)" fill="#150e40"/>
</svg>
