<svg xmlns="http://www.w3.org/2000/svg" width="33.8" height="43.49" viewBox="0 0 33.8 43.49">
  <g id="Public_release2" transform="translate(0 -0.01)">
    <g id="REC-Solar-Icon_Ribbon">
      <circle id="Ellipse_367" data-name="Ellipse 367" cx="9" cy="9" r="9" transform="translate(7.9 5.53)" fill="none" stroke="#000" stroke-linecap="round" stroke-linejoin="round" stroke-width="1.5"/>
      <path id="Path_72098" data-name="Path 72098" d="M30.68,14.53c0,1.16-1.69,2.09-1.97,3.16s.69,2.75.13,3.73-2.49.95-3.29,1.75-.76,2.72-1.75,3.29-2.62-.43-3.73-.13-2,1.97-3.16,1.97-2.09-1.69-3.16-1.97-2.75.69-3.73.13-.95-2.49-1.75-3.29-2.72-.76-3.29-1.75.43-2.62.13-3.73-1.97-2-1.97-3.16,1.69-2.09,1.97-3.16-.69-2.75-.13-3.73,2.49-.95,3.29-1.75.76-2.72,1.75-3.29,2.62.43,3.73.13,2-1.97,3.16-1.97S19,2.45,20.07,2.73s2.75-.69,3.73-.13.95,2.49,1.75,3.29,2.72.76,3.29,1.75-.43,2.62-.13,3.73,1.97,2,1.97,3.16Z" fill="none" stroke="#000" stroke-linecap="round" stroke-linejoin="round" stroke-width="1.5"/>
      <path id="Path_72099" data-name="Path 72099" d="M7.9,23.53A49.122,49.122,0,0,0,.75,40.45l4.62-3.08,2.31,5.38s3.15-12.09,6.23-15.23" fill="none" stroke="#000" stroke-linecap="round" stroke-linejoin="round" stroke-width="1.5"/>
      <path id="Path_72100" data-name="Path 72100" d="M24.9,24.53S30.68,30,33.05,40.45l-4.62-3.08-2.31,5.38s-3.15-12.09-6.23-15.23" fill="none" stroke="#000" stroke-linecap="round" stroke-linejoin="round" stroke-width="1.5"/>
      <circle id="Ellipse_368" data-name="Ellipse 368" cx="4.73" cy="4.73" r="4.73" transform="translate(12.17 9.8)" fill="none" stroke="#000" stroke-linecap="round" stroke-linejoin="round" stroke-width="1.5"/>
    </g>
  </g>
</svg>
