<svg xmlns="http://www.w3.org/2000/svg" width="144.374" height="34.316" viewBox="0 0 144.374 34.316">
  <g id="walmart" transform="translate(0)">
    <path id="Path_71875" data-name="Path 71875" d="M327.1,317.052a1.47,1.47,0,0,0,1.555-.958l.794-8.978c0-.887-1.04-1.616-2.347-1.616s-2.344.729-2.344,1.616l.793,8.978a1.465,1.465,0,0,0,1.551.958h0m-4.852,2.8a1.464,1.464,0,0,0-.052-1.824l-7.38-5.177c-.767-.444-1.918.091-2.571,1.223s-.539,2.394.226,2.838l8.171,3.8a1.478,1.478,0,0,0,1.607-.87l0,.005m9.709,0a1.479,1.479,0,0,0,1.607.87l8.171-3.8c.77-.444.879-1.707.23-2.838s-1.809-1.667-2.574-1.223l-7.38,5.177a1.471,1.471,0,0,0-.052,1.824l0-.005m-4.857,8.416a1.468,1.468,0,0,1,1.555.955l.794,8.977c0,.89-1.04,1.617-2.347,1.617s-2.344-.727-2.344-1.617l.793-8.977a1.463,1.463,0,0,1,1.551-.955h0m4.857-2.8a1.47,1.47,0,0,1,1.607-.867l8.171,3.8c.77.445.879,1.709.23,2.841s-1.809,1.665-2.574,1.221l-7.38-5.172a1.476,1.476,0,0,1-.052-1.827h0m-9.708,0a1.468,1.468,0,0,1-.052,1.827l-7.38,5.172c-.767.444-1.918-.094-2.571-1.221s-.539-2.4.226-2.841l8.171-3.8a1.47,1.47,0,0,1,1.607.867h0" transform="translate(-200.28 -305.5)" fill="#fdbb30"/>
    <path id="Path_71876" data-name="Path 71876" d="M-304.23,365.024a2.852,2.852,0,0,1-.1.809,2.835,2.835,0,0,1-2.729,1.913,1.846,1.846,0,0,1-2.009-1.979c0-2.056,2.263-2.623,4.838-2.609v1.866Zm4.04-3.582c0-3.39-1.448-6.372-6.342-6.372a11.583,11.583,0,0,0-5.594,1.334l.8,2.725a8.191,8.191,0,0,1,4.08-1.148c2.482-.007,2.889,1.406,2.889,2.31v.214c-5.411-.008-8.832,1.866-8.832,5.682a4.506,4.506,0,0,0,4.77,4.517,5.419,5.419,0,0,0,4.352-1.934h.092s.617,2.586,4.024,1.6a21.977,21.977,0,0,1-.236-3.6v-5.322m-84.31-10.988s3.536,14.489,4.1,16.84c.659,2.745,1.846,3.755,5.267,3.073l2.208-8.983c.56-2.232.935-3.824,1.3-6.092h.063a59.64,59.64,0,0,0,1.073,6.1s.9,4.078,1.359,6.219,1.745,3.491,5.1,2.756l5.261-19.914h-4.246l-1.8,8.61c-.483,2.505-.921,4.465-1.259,6.756h-.06c-.307-2.271-.7-4.151-1.189-6.593l-1.869-8.774h-4.425l-2,8.553c-.566,2.6-1.1,4.7-1.434,6.913h-.061c-.345-2.086-.805-4.724-1.3-7.24,0,0-1.188-6.118-1.606-8.227H-384.5m33.755,14.57a2.813,2.813,0,0,1-.1.809,2.834,2.834,0,0,1-2.729,1.913,1.845,1.845,0,0,1-2.008-1.979c0-2.056,2.262-2.623,4.838-2.609v1.866Zm4.039-3.582c0-3.39-1.448-6.372-6.341-6.372a11.587,11.587,0,0,0-5.6,1.334l.8,2.725a8.19,8.19,0,0,1,4.08-1.148c2.484-.007,2.891,1.406,2.891,2.31v.214c-5.413-.008-8.832,1.866-8.832,5.682a4.5,4.5,0,0,0,4.767,4.517,5.423,5.423,0,0,0,4.355-1.934h.091s.619,2.586,4.025,1.6a21.948,21.948,0,0,1-.236-3.6v-5.322m6.741,4.7V350.454h-4.045v19.914h4.045V366.14m52.91-15.686v14.69c0,2.026.382,3.444,1.2,4.312a4.482,4.482,0,0,0,3.293,1.25,9.634,9.634,0,0,0,2.927-.434l-.052-3.16a6.18,6.18,0,0,1-1.536.183c-1.378,0-1.839-.883-1.839-2.7v-5.621h3.522v-3.811h-3.522v-4.709h-3.989m-10.44,4.954v14.96h4.172v-7.66a5.673,5.673,0,0,1,.091-1.1,3.148,3.148,0,0,1,3.3-2.63,7.764,7.764,0,0,1,1.2.106v-3.916a4.062,4.062,0,0,0-.919-.092,4.4,4.4,0,0,0-4.072,3.16h-.113v-2.822h-3.661m-39.639,0v14.96h4.065V361.6a3.53,3.53,0,0,1,.191-1.224,2.754,2.754,0,0,1,2.471-1.918c1.641,0,2.407,1.387,2.407,3.388v8.526h4.062v-8.879a4.137,4.137,0,0,1,.17-1.213,2.562,2.562,0,0,1,2.439-1.823c1.663,0,2.461,1.362,2.461,3.718v8.2h4.064v-8.812c0-4.646-2.359-6.486-5.023-6.486a5.424,5.424,0,0,0-2.952.811,6.329,6.329,0,0,0-1.895,1.865h-.06a4.266,4.266,0,0,0-4.123-2.675,4.708,4.708,0,0,0-4.357,2.37h-.061v-2.033h-3.858" transform="translate(384.5 -343.252)" fill="#1a75cf"/>
    <path id="Path_71877" data-name="Path 71877" d="M507.712,466.457h.061c.081,0,.134-.034.134-.084s-.049-.088-.125-.088c-.026,0-.053.005-.07.005v.166Zm-.009.4h-.216v-.7a1.706,1.706,0,0,1,.31-.027.476.476,0,0,1,.283.058.182.182,0,0,1,.076.154c0,.072-.066.133-.165.16v.009a.207.207,0,0,1,.146.181.71.71,0,0,0,.049.169h-.245a.468.468,0,0,1-.048-.151c-.014-.071-.047-.107-.12-.107H507.7Zm.089-.933a.573.573,0,1,0,.563.57.551.551,0,0,0-.563-.57Zm.014-.191a.809.809,0,1,1-.006,0h0" transform="translate(-364.209 -440.069)" fill="#fdbb30"/>
  </g>
</svg>
